<svg xmlns="http://www.w3.org/2000/svg" viewBox="0 0 128 128" role="img" aria-label="ROBIN NFT Radar">
  <defs>
    <linearGradient id="g" x1="16" y1="16" x2="112" y2="112" gradientUnits="userSpaceOnUse">
      <stop stop-color="#5eead4"/>
      <stop offset="0.5" stop-color="#2dd4bf"/>
      <stop offset="1" stop-color="#a78bfa"/>
    </linearGradient>
    <filter id="glow" x="-30%" y="-30%" width="160%" height="160%">
      <feGaussianBlur stdDeviation="2.2" result="b"/>
      <feMerge>
        <feMergeNode in="b"/>
        <feMergeNode in="SourceGraphic"/>
      </feMerge>
    </filter>
  </defs>
  <rect width="128" height="128" rx="32" fill="#07090f"/>
  <rect x="3" y="3" width="122" height="122" rx="30" fill="none" stroke="url(#g)" stroke-opacity="0.4" stroke-width="2"/>
  <g filter="url(#glow)">
    <circle cx="64" cy="70" r="36" fill="none" stroke="url(#g)" stroke-width="2" opacity="0.28"/>
    <circle cx="64" cy="70" r="25" fill="none" stroke="url(#g)" stroke-width="2.2" opacity="0.5"/>
    <circle cx="64" cy="70" r="14" fill="none" stroke="url(#g)" stroke-width="2.4" opacity="0.75"/>
    <path d="M64 70 L64 34 A36 36 0 0 1 95 88 Z" fill="url(#g)" opacity="0.18"/>
    <path d="M64 70 L90.5 85.5" stroke="url(#g)" stroke-width="3.5" stroke-linecap="round"/>
    <circle cx="64" cy="70" r="4.5" fill="#5eead4"/>
    <path
      d="M42 36h22c10.6 0 17.6 5.5 17.6 14.4 0 6.8-3.8 11.5-10.2 13.5L84 84H73.2l-10.8-18.2H51.8V84H42V36zm9.8 8.2v13.2h10.4c5 0 8.1-2.3 8.1-6.6s-3.1-6.6-8.1-6.6H51.8z"
      fill="url(#g)"
    />
  </g>
</svg>
