<svg xmlns="http://www.w3.org/2000/svg" viewBox="0 0 64 64" role="img" aria-label="ROBIN NFT Radar">
  <defs>
    <linearGradient id="g" x1="8" y1="8" x2="56" y2="56" gradientUnits="userSpaceOnUse">
      <stop stop-color="#5eead4"/>
      <stop offset="0.55" stop-color="#2dd4bf"/>
      <stop offset="1" stop-color="#a78bfa"/>
    </linearGradient>
    <linearGradient id="ring" x1="32" y1="12" x2="32" y2="52" gradientUnits="userSpaceOnUse">
      <stop stop-color="#5eead4" stop-opacity="0.95"/>
      <stop offset="1" stop-color="#a78bfa" stop-opacity="0.85"/>
    </linearGradient>
  </defs>
  <!-- rounded app tile -->
  <rect x="2" y="2" width="60" height="60" rx="16" fill="#0B1220"/>
  <rect x="2.75" y="2.75" width="58.5" height="58.5" rx="15.25" fill="none" stroke="url(#g)" stroke-opacity="0.35" stroke-width="1.5"/>
  <!-- radar rings -->
  <circle cx="32" cy="34" r="18" fill="none" stroke="url(#ring)" stroke-width="1.4" opacity="0.35"/>
  <circle cx="32" cy="34" r="12.5" fill="none" stroke="url(#ring)" stroke-width="1.4" opacity="0.55"/>
  <circle cx="32" cy="34" r="7" fill="none" stroke="url(#ring)" stroke-width="1.5" opacity="0.8"/>
  <!-- sweep wedge -->
  <path d="M32 34 L32 16 A18 18 0 0 1 47.5 43 Z" fill="url(#g)" opacity="0.22"/>
  <path d="M32 34 L45.2 41.8" stroke="url(#g)" stroke-width="2" stroke-linecap="round"/>
  <!-- center blip -->
  <circle cx="32" cy="34" r="2.4" fill="#5eead4"/>
  <!-- bold R monogram -->
  <path
    d="M22 18.5h10.2c5.1 0 8.5 2.7 8.5 7.1 0 3.4-1.9 5.7-5 6.7l5.8 9.7h-5.3l-5.2-9H26.8v9H22V18.5zm4.8 4v6.4h5c2.4 0 3.9-1.1 3.9-3.2S34.2 22.5 31.8 22.5H26.8z"
    fill="url(#g)"
  />
</svg>
